<?xml version="1.0" encoding="UTF-8" standalone="no"?>
<!DOCTYPE svg PUBLIC "-//W3C//DTD SVG 1.1//EN" "http://www.w3.org/Graphics/SVG/1.1/DTD/svg11.dtd">
<!-- Created with Vectornator (http://vectornator.io/) -->
<svg height="1024.0px" stroke-miterlimit="10" style="fill-rule:nonzero;clip-rule:evenodd;stroke-linecap:round;stroke-linejoin:round;" version="1.1" viewBox="0 0 1024 1024" width="1024.0px" xml:space="preserve" xmlns="http://www.w3.org/2000/svg" xmlns:xlink="http://www.w3.org/1999/xlink">
<defs/>
<g id="Layer-1">
<g fill="#a957f7" opacity="1" stroke="none">
<path d="M272.668 78.768L272.668 236.306L193.899 236.306L193.899 78.768L272.668 78.768Z"/>
<path d="M351.437 78.768L351.437 236.306L272.668 236.306L272.668 78.768L351.437 78.768Z"/>
<path d="M430.207 78.768L430.207 236.306L351.437 236.306L351.437 78.768L430.207 78.768Z"/>
<path d="M508.976 78.768L508.976 236.306L430.207 236.306L430.207 78.768L508.976 78.768Z"/>
<path d="M587.745 78.768L587.745 236.306L508.976 236.306L508.976 78.768L587.745 78.768Z"/>
<path d="M666.514 78.768L666.514 236.306L587.745 236.306L587.745 78.768L666.514 78.768Z"/>
<path d="M721.653 135.219L721.653 262.563L711.15 262.563L711.15 145.722L665.858 145.722L665.858 135.219L721.653 135.219ZM700.648 156.224L700.648 262.563L690.145 262.563L690.145 166.727L665.858 166.727L665.858 156.224L700.648 156.224Z"/>
<path d="M272.668 236.307L272.668 393.846L193.899 393.846L193.899 236.307L272.668 236.307Z"/>
<path d="M351.437 236.307L351.437 393.846L272.668 393.846L272.668 236.307L351.437 236.307Z"/>
<path d="M430.863 292.758L430.863 303.261L385.571 303.261L385.571 420.102L375.068 420.102L375.068 292.758L430.863 292.758ZM430.863 313.764L430.863 324.266L406.576 324.266L406.576 420.102L396.073 420.102L396.073 313.764L430.863 313.764Z"/>
<path d="M509.632 292.758L509.632 303.261L429.55 303.261L429.55 292.758L509.632 292.758ZM509.632 313.764L509.632 324.266L429.55 324.266L429.55 313.764L509.632 313.764Z"/>
<path d="M588.401 292.758L588.401 303.261L508.319 303.261L508.319 292.758L588.401 292.758ZM588.401 313.764L588.401 324.266L508.319 324.266L508.319 313.764L588.401 313.764Z"/>
<path d="M666.514 236.307L666.514 393.846L587.745 393.846L587.745 236.307L666.514 236.307Z"/>
<path d="M745.283 236.307L745.283 393.846L666.514 393.846L666.514 236.307L745.283 236.307Z"/>
<path d="M800.422 292.758L800.422 420.102L789.919 420.102L789.919 303.261L744.627 303.261L744.627 292.758L800.422 292.758ZM779.417 313.764L779.417 420.102L768.914 420.102L768.914 324.266L744.627 324.266L744.627 313.764L779.417 313.764Z"/>
<path d="M272.668 393.846L272.668 551.385L193.899 551.385L193.899 393.846L272.668 393.846Z"/>
<path d="M351.437 393.846L351.437 551.385L272.668 551.385L272.668 393.846L351.437 393.846Z"/>
<path d="M406.576 380.718L406.576 577.641L396.073 577.641L396.073 380.718L406.576 380.718ZM385.571 380.718L385.571 577.641L375.068 577.641L375.068 380.718L385.571 380.718Z"/>
<path d="M666.514 393.846L666.514 551.385L587.745 551.385L587.745 393.846L666.514 393.846Z"/>
<path d="M745.283 393.846L745.283 551.385L666.514 551.385L666.514 393.846L745.283 393.846Z"/>
<path d="M800.422 380.718L800.422 577.641L789.919 577.641L789.919 380.718L800.422 380.718ZM779.417 380.718L779.417 577.641L768.914 577.641L768.914 380.718L779.417 380.718Z"/>
<path d="M272.668 551.385L272.668 708.924L193.899 708.924L193.899 551.385L272.668 551.385Z"/>
<path d="M351.437 551.385L351.437 708.924L272.668 708.924L272.668 551.385L351.437 551.385Z"/>
<path d="M406.576 538.257L406.576 735.18L396.073 735.18L396.073 538.257L406.576 538.257ZM385.571 538.257L385.571 735.18L375.068 735.18L375.068 538.257L385.571 538.257Z"/>
<path d="M666.514 551.385L666.514 708.924L587.745 708.924L587.745 551.385L666.514 551.385Z"/>
<path d="M745.283 551.385L745.283 708.924L666.514 708.924L666.514 551.385L745.283 551.385Z"/>
<path d="M800.422 538.257L800.422 735.18L789.919 735.18L789.919 538.257L800.422 538.257ZM779.417 538.257L779.417 735.18L768.914 735.18L768.914 538.257L779.417 538.257Z"/>
<path d="M272.668 708.924L272.668 866.463L193.899 866.463L193.899 708.924L272.668 708.924Z"/>
<path d="M351.437 708.924L351.437 866.463L272.668 866.463L272.668 708.924L351.437 708.924Z"/>
<path d="M430.207 708.924L430.207 866.463L351.437 866.463L351.437 708.924L430.207 708.924Z"/>
<path d="M508.976 708.924L508.976 866.463L430.207 866.463L430.207 708.924L508.976 708.924Z"/>
<path d="M587.745 708.924L587.745 866.463L508.976 866.463L508.976 708.924L587.745 708.924Z"/>
<path d="M666.514 708.924L666.514 866.463L587.745 866.463L587.745 708.924L666.514 708.924Z"/>
<path d="M745.94 765.376L745.94 775.878L700.648 775.878L700.648 892.719L690.145 892.719L690.145 765.376L745.94 765.376ZM745.94 786.381L745.94 796.883L721.653 796.883L721.653 892.719L711.15 892.719L711.15 786.381L745.94 786.381Z"/>
<path d="M800.422 695.796L800.422 796.883L744.627 796.883L744.627 786.381L789.919 786.381L789.919 695.796L800.422 695.796ZM779.417 695.796L779.417 775.878L744.627 775.878L744.627 765.376L768.914 765.376L768.914 695.796L779.417 695.796Z"/>
<path d="M228.032 853.335L228.032 943.92L273.324 943.92L273.324 954.422L217.53 954.422L217.53 853.335L228.032 853.335ZM249.037 853.335L249.037 922.915L273.324 922.915L273.324 933.417L238.535 933.417L238.535 853.335L249.037 853.335Z"/>
<path d="M352.094 922.915L352.094 933.417L272.012 933.417L272.012 922.915L352.094 922.915ZM352.094 943.92L352.094 954.422L272.012 954.422L272.012 943.92L352.094 943.92Z"/>
<path d="M430.863 922.915L430.863 933.417L350.781 933.417L350.781 922.915L430.863 922.915ZM430.863 943.92L430.863 954.422L350.781 954.422L350.781 943.92L430.863 943.92Z"/>
<path d="M509.632 922.915L509.632 933.417L429.55 933.417L429.55 922.915L509.632 922.915ZM509.632 943.92L509.632 954.422L429.55 954.422L429.55 943.92L509.632 943.92Z"/>
<path d="M588.401 922.915L588.401 933.417L508.319 933.417L508.319 922.915L588.401 922.915ZM588.401 943.92L588.401 954.422L508.319 954.422L508.319 943.92L588.401 943.92Z"/>
<path d="M667.171 922.915L667.171 933.417L587.089 933.417L587.089 922.915L667.171 922.915ZM667.171 943.92L667.171 954.422L587.089 954.422L587.089 943.92L667.171 943.92Z"/>
<path d="M721.653 853.335L721.653 954.422L665.858 954.422L665.858 943.92L711.15 943.92L711.15 853.335L721.653 853.335ZM700.648 853.335L700.648 933.417L665.858 933.417L665.858 922.915L690.145 922.915L690.145 853.335L700.648 853.335Z"/>
</g>
</g>
</svg>
